frame:0    pts:5037032 pts_time:167.901
lavfi.scene_score=0.373776
frame:1    pts:6504498 pts_time:216.817
lavfi.scene_score=0.430244
frame:2    pts:6718712 pts_time:223.957
lavfi.scene_score=0.455921
frame:3    pts:8111103 pts_time:270.37
lavfi.scene_score=0.289682
frame:4    pts:9591582 pts_time:319.719
lavfi.scene_score=0.402302
frame:5    pts:9678669 pts_time:322.622
lavfi.scene_score=0.447814
frame:6    pts:9767758 pts_time:325.592
lavfi.scene_score=0.423394
frame:7    pts:9835826 pts_time:327.861
lavfi.scene_score=0.445864
frame:8    pts:9894885 pts_time:329.829
lavfi.scene_score=0.434597
frame:9    pts:10208198 pts_time:340.273
lavfi.scene_score=0.418240
frame:10   pts:10283273 pts_time:342.776
lavfi.scene_score=0.446385
frame:11   pts:10708698 pts_time:356.957
lavfi.scene_score=0.455446
frame:12   pts:10785775 pts_time:359.526
lavfi.scene_score=0.467760
frame:13   pts:10982972 pts_time:366.099
lavfi.scene_score=0.466774
frame:14   pts:11366355 pts_time:378.879
lavfi.scene_score=0.436075
frame:15   pts:11466455 pts_time:382.215
lavfi.scene_score=0.448629
frame:16   pts:11825814 pts_time:394.194
lavfi.scene_score=0.266584
frame:17   pts:12477465 pts_time:415.916
lavfi.scene_score=0.462378
frame:18   pts:12621609 pts_time:420.72
lavfi.scene_score=0.379792
frame:19   pts:12687675 pts_time:422.923
lavfi.scene_score=0.385477
frame:20   pts:12779767 pts_time:425.992
lavfi.scene_score=0.452733
frame:21   pts:13724711 pts_time:457.49
lavfi.scene_score=0.299794
frame:22   pts:15080065 pts_time:502.669
lavfi.scene_score=0.361650
frame:23   pts:18825807 pts_time:627.527
lavfi.scene_score=0.318316
frame:24   pts:18863845 pts_time:628.795
lavfi.scene_score=0.331976
frame:25   pts:18902884 pts_time:630.096
lavfi.scene_score=0.329031
frame:26   pts:19031012 pts_time:634.367
lavfi.scene_score=0.296738
frame:27   pts:19735716 pts_time:657.857
lavfi.scene_score=0.287566
frame:28   pts:19873854 pts_time:662.462
lavfi.scene_score=0.298409
frame:29   pts:21073052 pts_time:702.435
lavfi.scene_score=0.250052
frame:30   pts:21438417 pts_time:714.614
lavfi.scene_score=0.337707
frame:31   pts:21656635 pts_time:721.888
lavfi.scene_score=0.333460
frame:32   pts:22097075 pts_time:736.569
lavfi.scene_score=0.285904
frame:33   pts:23196173 pts_time:773.206
lavfi.scene_score=0.408962
frame:34   pts:23263240 pts_time:775.441
lavfi.scene_score=0.340422
frame:35   pts:23362339 pts_time:778.745
lavfi.scene_score=0.400925
frame:36   pts:23411388 pts_time:780.38
lavfi.scene_score=0.403776
frame:37   pts:23500477 pts_time:783.349
lavfi.scene_score=0.363936
frame:38   pts:23778755 pts_time:792.625
lavfi.scene_score=0.387457
frame:39   pts:24387363 pts_time:812.912
lavfi.scene_score=0.333213
frame:40   pts:24599575 pts_time:819.986
lavfi.scene_score=0.269678
frame:41   pts:25915890 pts_time:863.863
lavfi.scene_score=0.266978
frame:42   pts:26534508 pts_time:884.484
lavfi.scene_score=0.531228
frame:43   pts:27147120 pts_time:904.904
lavfi.scene_score=0.395479
frame:44   pts:27449422 pts_time:914.981
lavfi.scene_score=0.421635
frame:45   pts:27626599 pts_time:920.887
lavfi.scene_score=0.463883
frame:46   pts:27748721 pts_time:924.957
lavfi.scene_score=0.444571
frame:47   pts:27882855 pts_time:929.429
lavfi.scene_score=0.427374
frame:48   pts:28402374 pts_time:946.746
lavfi.scene_score=0.603742
frame:49   pts:28523495 pts_time:950.783
lavfi.scene_score=0.410354
frame:50   pts:29353324 pts_time:978.444
lavfi.scene_score=0.485034
frame:51   pts:29541512 pts_time:984.717
lavfi.scene_score=0.499536
frame:52   pts:29679650 pts_time:989.322
lavfi.scene_score=0.315047
frame:53   pts:29684655 pts_time:989.489
lavfi.scene_score=0.298574
frame:54   pts:29689660 pts_time:989.655
lavfi.scene_score=0.296477
frame:55   pts:29694665 pts_time:989.822
lavfi.scene_score=0.328797
frame:56   pts:29699670 pts_time:989.989
lavfi.scene_score=0.291935
frame:57   pts:29704675 pts_time:990.156
lavfi.scene_score=0.251819
frame:58   pts:29714685 pts_time:990.49
lavfi.scene_score=0.290112
frame:59   pts:29719690 pts_time:990.656
lavfi.scene_score=0.262503
frame:60   pts:29889860 pts_time:996.329
lavfi.scene_score=0.543088
frame:61   pts:30609579 pts_time:1020.32
lavfi.scene_score=0.408051
frame:62   pts:32120088 pts_time:1070.67
lavfi.scene_score=0.628952
frame:63   pts:32207175 pts_time:1073.57
lavfi.scene_score=0.581784
frame:64   pts:32285253 pts_time:1076.18
lavfi.scene_score=0.616206
frame:65   pts:32593561 pts_time:1086.45
lavfi.scene_score=0.578378
frame:66   pts:33054021 pts_time:1101.8
lavfi.scene_score=0.524625
frame:67   pts:34645611 pts_time:1154.85
lavfi.scene_score=0.735764
frame:68   pts:35468433 pts_time:1182.28
lavfi.scene_score=0.408027
frame:69   pts:36099063 pts_time:1203.3
lavfi.scene_score=0.312874
frame:70   pts:36382346 pts_time:1212.74
lavfi.scene_score=0.417131
frame:71   pts:36537501 pts_time:1217.92
lavfi.scene_score=0.413857
frame:72   pts:36645609 pts_time:1221.52
lavfi.scene_score=0.421758
frame:73   pts:36788752 pts_time:1226.29
lavfi.scene_score=0.433886
frame:74   pts:37046009 pts_time:1234.87
lavfi.scene_score=0.587631
frame:75   pts:37166129 pts_time:1238.87
lavfi.scene_score=0.575277
frame:76   pts:37333296 pts_time:1244.44
lavfi.scene_score=0.439029
frame:77   pts:37928891 pts_time:1264.3
lavfi.scene_score=0.406381
frame:78   pts:38038000 pts_time:1267.93
lavfi.scene_score=0.264523
frame:79   pts:38083045 pts_time:1269.43
lavfi.scene_score=0.253878
frame:80   pts:38130092 pts_time:1271
lavfi.scene_score=0.250674
frame:81   pts:38135097 pts_time:1271.17
lavfi.scene_score=0.258097
frame:82   pts:38149111 pts_time:1271.64
lavfi.scene_score=0.264280
frame:83   pts:38165127 pts_time:1272.17
lavfi.scene_score=0.264082
frame:84   pts:38170132 pts_time:1272.34
lavfi.scene_score=0.279155
frame:85   pts:38174136 pts_time:1272.47
lavfi.scene_score=0.274014
frame:86   pts:38179141 pts_time:1272.64
lavfi.scene_score=0.277653
frame:87   pts:38194156 pts_time:1273.14
lavfi.scene_score=0.280176
frame:88   pts:38199161 pts_time:1273.31
lavfi.scene_score=0.250180
frame:89   pts:38234196 pts_time:1274.47
lavfi.scene_score=0.259394
frame:90   pts:38249211 pts_time:1274.97
lavfi.scene_score=0.473261
frame:91   pts:38315277 pts_time:1277.18
lavfi.scene_score=0.468196
frame:92   pts:38404366 pts_time:1280.15
lavfi.scene_score=0.497087
frame:93   pts:38476438 pts_time:1282.55
lavfi.scene_score=0.410638
frame:94   pts:38572534 pts_time:1285.75
lavfi.scene_score=0.403893
frame:95   pts:38627589 pts_time:1287.59
lavfi.scene_score=0.395760
frame:96   pts:38629591 pts_time:1287.65
lavfi.scene_score=0.267156
frame:97   pts:38634596 pts_time:1287.82
lavfi.scene_score=0.255478
frame:98   pts:38639601 pts_time:1287.99
lavfi.scene_score=0.257399
frame:99   pts:38649611 pts_time:1288.32
lavfi.scene_score=0.261103
frame:100  pts:38755717 pts_time:1291.86
lavfi.scene_score=0.493362
frame:101  pts:38820782 pts_time:1294.03
lavfi.scene_score=0.504543
frame:102  pts:38946908 pts_time:1298.23
lavfi.scene_score=0.358123
frame:103  pts:39018980 pts_time:1300.63
lavfi.scene_score=0.434486
frame:104  pts:39072033 pts_time:1302.4
lavfi.scene_score=0.427267
frame:105  pts:39113074 pts_time:1303.77
lavfi.scene_score=0.526144
frame:106  pts:39294255 pts_time:1309.81
lavfi.scene_score=0.362616
frame:107  pts:39328289 pts_time:1310.94
lavfi.scene_score=0.414313
frame:108  pts:39389350 pts_time:1312.98
lavfi.scene_score=0.368375
frame:109  pts:39426387 pts_time:1314.21
lavfi.scene_score=0.389463
frame:110  pts:39451412 pts_time:1315.05
lavfi.scene_score=0.263606
frame:111  pts:39476437 pts_time:1315.88
lavfi.scene_score=0.262738
frame:112  pts:39491452 pts_time:1316.38
lavfi.scene_score=0.276580
frame:113  pts:39496457 pts_time:1316.55
lavfi.scene_score=0.293099
frame:114  pts:39501462 pts_time:1316.72
lavfi.scene_score=0.264629
frame:115  pts:39927888 pts_time:1330.93
lavfi.scene_score=0.392537
frame:116  pts:39998959 pts_time:1333.3
lavfi.scene_score=0.400159
frame:117  pts:40165125 pts_time:1338.84
lavfi.scene_score=0.310309
frame:118  pts:40326286 pts_time:1344.21
lavfi.scene_score=0.301100
frame:119  pts:40386346 pts_time:1346.21
lavfi.scene_score=0.338592
frame:120  pts:40423383 pts_time:1347.45
lavfi.scene_score=0.254829
frame:121  pts:40448408 pts_time:1348.28
lavfi.scene_score=0.289831
frame:122  pts:40453413 pts_time:1348.45
lavfi.scene_score=0.255077
frame:123  pts:41022982 pts_time:1367.43
lavfi.scene_score=0.315709
frame:124  pts:41270229 pts_time:1375.67
lavfi.scene_score=0.400671
frame:125  pts:41751710 pts_time:1391.72
lavfi.scene_score=0.260084
frame:126  pts:41756715 pts_time:1391.89
lavfi.scene_score=0.272472
frame:127  pts:41761720 pts_time:1392.06
lavfi.scene_score=0.282420
frame:128  pts:41766725 pts_time:1392.22
lavfi.scene_score=0.288652
frame:129  pts:42804762 pts_time:1426.83
lavfi.scene_score=0.471389
frame:130  pts:42915873 pts_time:1430.53
lavfi.scene_score=0.421324
frame:131  pts:43151108 pts_time:1438.37
lavfi.scene_score=0.447568
frame:132  pts:43222179 pts_time:1440.74
lavfi.scene_score=0.463464
frame:133  pts:43437394 pts_time:1447.91
lavfi.scene_score=0.479297
frame:134  pts:43556513 pts_time:1451.88
lavfi.scene_score=0.476015
frame:135  pts:43833790 pts_time:1461.13
lavfi.scene_score=0.509827
frame:136  pts:44049005 pts_time:1468.3
lavfi.scene_score=0.382491
frame:137  pts:45219174 pts_time:1507.31
lavfi.scene_score=0.400990
frame:138  pts:45361316 pts_time:1512.04
lavfi.scene_score=0.364492
frame:139  pts:45529484 pts_time:1517.65
lavfi.scene_score=0.377694
frame:140  pts:45657612 pts_time:1521.92
lavfi.scene_score=0.384137
frame:141  pts:45875830 pts_time:1529.19
lavfi.scene_score=0.387000
frame:142  pts:45955910 pts_time:1531.86
lavfi.scene_score=0.384164
frame:143  pts:46573527 pts_time:1552.45
lavfi.scene_score=0.382969
frame:144  pts:46744698 pts_time:1558.16
lavfi.scene_score=0.765445
frame:145  pts:46953907 pts_time:1565.13
lavfi.scene_score=0.570977
frame:146  pts:47401354 pts_time:1580.05
lavfi.scene_score=0.388360
frame:147  pts:47727680 pts_time:1590.92
lavfi.scene_score=0.662903
frame:148  pts:48008961 pts_time:1600.3
lavfi.scene_score=0.344067
frame:149  pts:48166118 pts_time:1605.54
lavfi.scene_score=0.844783
frame:150  pts:48592544 pts_time:1619.75
lavfi.scene_score=0.633860
frame:151  pts:48850802 pts_time:1628.36
lavfi.scene_score=0.517333
frame:152  pts:49040992 pts_time:1634.7
lavfi.scene_score=0.462757
frame:153  pts:49180131 pts_time:1639.34
lavfi.scene_score=0.409280
frame:154  pts:49810761 pts_time:1660.36
lavfi.scene_score=0.252818
frame:155  pts:49851802 pts_time:1661.73
lavfi.scene_score=0.332544
frame:156  pts:50007958 pts_time:1666.93
lavfi.scene_score=0.357250
frame:157  pts:50047998 pts_time:1668.27
lavfi.scene_score=0.402158
frame:158  pts:50201151 pts_time:1673.37
lavfi.scene_score=0.263676
frame:159  pts:50296246 pts_time:1676.54
lavfi.scene_score=0.441802
frame:160  pts:50689639 pts_time:1689.65
lavfi.scene_score=0.334049
frame:161  pts:50805755 pts_time:1693.53
lavfi.scene_score=0.381744
frame:162  pts:50977927 pts_time:1699.26
lavfi.scene_score=0.466692
frame:163  pts:51124073 pts_time:1704.14
lavfi.scene_score=0.572180
frame:164  pts:51369318 pts_time:1712.31
lavfi.scene_score=0.442294
frame:165  pts:51501450 pts_time:1716.72
lavfi.scene_score=0.532135
frame:166  pts:51535484 pts_time:1717.85
lavfi.scene_score=0.536565
frame:167  pts:51625574 pts_time:1720.85
lavfi.scene_score=0.540178
frame:168  pts:52165113 pts_time:1738.84
lavfi.scene_score=0.536376
frame:169  pts:53278225 pts_time:1775.94
lavfi.scene_score=0.379357
frame:170  pts:53388335 pts_time:1779.61
lavfi.scene_score=0.443307
frame:171  pts:53433380 pts_time:1781.11
lavfi.scene_score=0.291532
frame:172  pts:53488435 pts_time:1782.95
lavfi.scene_score=0.447098
frame:173  pts:53583530 pts_time:1786.12
lavfi.scene_score=0.367494
frame:174  pts:54057003 pts_time:1801.9
lavfi.scene_score=0.406812
frame:175  pts:55049995 pts_time:1835
lavfi.scene_score=0.401379
frame:176  pts:55153098 pts_time:1838.44
lavfi.scene_score=0.398564
frame:177  pts:56072016 pts_time:1869.07
lavfi.scene_score=0.398294
frame:178  pts:56441385 pts_time:1881.38
lavfi.scene_score=0.669514
frame:179  pts:56882826 pts_time:1896.09
lavfi.scene_score=0.330074
frame:180  pts:59201142 pts_time:1973.37
lavfi.scene_score=0.518582
frame:181  pts:59301242 pts_time:1976.71
lavfi.scene_score=0.254938
frame:182  pts:59321262 pts_time:1977.38
lavfi.scene_score=0.250529
frame:183  pts:59331272 pts_time:1977.71
lavfi.scene_score=0.256282
frame:184  pts:59934875 pts_time:1997.83
lavfi.scene_score=0.443222
frame:185  pts:62419357 pts_time:2080.65
lavfi.scene_score=0.437235
frame:186  pts:63586523 pts_time:2119.55
lavfi.scene_score=0.467409
frame:187  pts:63822759 pts_time:2127.43
lavfi.scene_score=0.466396
frame:188  pts:64424360 pts_time:2147.48
lavfi.scene_score=0.467873
frame:189  pts:64580516 pts_time:2152.68
lavfi.scene_score=0.511681
frame:190  pts:64859795 pts_time:2161.99
lavfi.scene_score=0.548625
frame:191  pts:65061997 pts_time:2168.73
lavfi.scene_score=0.526051
frame:192  pts:65164099 pts_time:2172.14
lavfi.scene_score=0.538351
frame:193  pts:65326261 pts_time:2177.54
lavfi.scene_score=0.542536
frame:194  pts:65394329 pts_time:2179.81
lavfi.scene_score=0.598823
frame:195  pts:65574509 pts_time:2185.82
lavfi.scene_score=0.536317
frame:196  pts:66028963 pts_time:2200.97
lavfi.scene_score=0.440534
frame:197  pts:66863797 pts_time:2228.79
lavfi.scene_score=0.441548
frame:198  pts:67791724 pts_time:2259.72
lavfi.scene_score=0.370914
frame:199  pts:67907840 pts_time:2263.59
lavfi.scene_score=0.405992
frame:200  pts:68091023 pts_time:2269.7
lavfi.scene_score=0.403810
frame:201  pts:68424356 pts_time:2280.81
lavfi.scene_score=0.369611
frame:202  pts:69278209 pts_time:2309.27
lavfi.scene_score=0.462839
frame:203  pts:69320251 pts_time:2310.68
lavfi.scene_score=0.424729
frame:204  pts:70030961 pts_time:2334.37
lavfi.scene_score=0.450741
frame:205  pts:70034965 pts_time:2334.5
lavfi.scene_score=0.589301
frame:206  pts:70080010 pts_time:2336
lavfi.scene_score=0.446043
frame:207  pts:72100028 pts_time:2403.33
lavfi.scene_score=0.496903
frame:208  pts:73170097 pts_time:2439
lavfi.scene_score=0.486051
frame:209  pts:75004930 pts_time:2500.16
lavfi.scene_score=0.494942
frame:210  pts:75240165 pts_time:2508.01
lavfi.scene_score=0.505324
frame:211  pts:78047970 pts_time:2601.6
lavfi.scene_score=0.554043
frame:212  pts:78185107 pts_time:2606.17
lavfi.scene_score=0.522713
frame:213  pts:78713635 pts_time:2623.79
lavfi.scene_score=0.423081
frame:214  pts:79342263 pts_time:2644.74
lavfi.scene_score=0.438643
frame:215  pts:80226146 pts_time:2674.2
lavfi.scene_score=0.474243
frame:216  pts:80632552 pts_time:2687.75
lavfi.scene_score=0.502532
frame:217  pts:80895815 pts_time:2696.53
lavfi.scene_score=0.426031
frame:218  pts:81132051 pts_time:2704.4
lavfi.scene_score=0.415726
frame:219  pts:81272191 pts_time:2709.07
lavfi.scene_score=0.432706
frame:220  pts:81611530 pts_time:2720.38
lavfi.scene_score=0.409868
frame:221  pts:81827746 pts_time:2727.59
lavfi.scene_score=0.354399
frame:222  pts:82095013 pts_time:2736.5
lavfi.scene_score=0.408771
frame:223  pts:82657575 pts_time:2755.25
lavfi.scene_score=0.473513
frame:224  pts:82842760 pts_time:2761.43
lavfi.scene_score=0.491809
frame:225  pts:83000918 pts_time:2766.7
lavfi.scene_score=0.492161
frame:226  pts:83049967 pts_time:2768.33
lavfi.scene_score=0.516506
frame:227  pts:83157074 pts_time:2771.9
lavfi.scene_score=0.501068
frame:228  pts:83198115 pts_time:2773.27
lavfi.scene_score=0.478565
frame:229  pts:83263180 pts_time:2775.44
lavfi.scene_score=0.487582
frame:230  pts:83333250 pts_time:2777.78
lavfi.scene_score=0.510647
frame:231  pts:83386303 pts_time:2779.54
lavfi.scene_score=0.494962
frame:232  pts:83465382 pts_time:2782.18
lavfi.scene_score=0.538769
frame:233  pts:83566483 pts_time:2785.55
lavfi.scene_score=0.427801
frame:234  pts:83986903 pts_time:2799.56
lavfi.scene_score=0.463706
frame:235  pts:84039956 pts_time:2801.33
lavfi.scene_score=0.448586
frame:236  pts:84152068 pts_time:2805.07
lavfi.scene_score=0.251137
frame:237  pts:84177093 pts_time:2805.9
lavfi.scene_score=0.262922
frame:238  pts:84187103 pts_time:2806.24
lavfi.scene_score=0.254978
frame:239  pts:84215131 pts_time:2807.17
lavfi.scene_score=0.350271
frame:240  pts:84260176 pts_time:2808.67
lavfi.scene_score=0.454538
frame:241  pts:84393309 pts_time:2813.11
lavfi.scene_score=0.436560
frame:242  pts:84588504 pts_time:2819.62
lavfi.scene_score=0.509258
frame:243  pts:84965881 pts_time:2832.2
lavfi.scene_score=0.460518
frame:244  pts:85008924 pts_time:2833.63
lavfi.scene_score=0.461002
frame:245  pts:85259174 pts_time:2841.97
lavfi.scene_score=0.533345
frame:246  pts:85299214 pts_time:2843.31
lavfi.scene_score=0.569628
frame:247  pts:85404319 pts_time:2846.81
lavfi.scene_score=0.563944
frame:248  pts:85514429 pts_time:2850.48
lavfi.scene_score=0.485821
frame:249  pts:85683598 pts_time:2856.12
lavfi.scene_score=0.477725
frame:250  pts:85812727 pts_time:2860.42
lavfi.scene_score=0.473052
frame:251  pts:85862777 pts_time:2862.09
lavfi.scene_score=0.474477
frame:252  pts:85875790 pts_time:2862.53
lavfi.scene_score=0.281922
frame:253  pts:85910825 pts_time:2863.69
lavfi.scene_score=0.253907
frame:254  pts:85935850 pts_time:2864.53
lavfi.scene_score=0.259271
frame:255  pts:85940855 pts_time:2864.7
lavfi.scene_score=0.290820
frame:256  pts:85951866 pts_time:2865.06
lavfi.scene_score=0.331264
frame:257  pts:86011926 pts_time:2867.06
lavfi.scene_score=0.608432
frame:258  pts:86062977 pts_time:2868.77
lavfi.scene_score=0.647112
frame:259  pts:86098012 pts_time:2869.93
lavfi.scene_score=0.461247
frame:260  pts:86176090 pts_time:2872.54
lavfi.scene_score=0.454447
frame:261  pts:86203117 pts_time:2873.44
lavfi.scene_score=0.258731
frame:262  pts:86219133 pts_time:2873.97
lavfi.scene_score=0.347548
frame:263  pts:86222136 pts_time:2874.07
lavfi.scene_score=0.327631
frame:264  pts:86227141 pts_time:2874.24
lavfi.scene_score=0.285493
frame:265  pts:86233147 pts_time:2874.44
lavfi.scene_score=0.254665
frame:266  pts:86238152 pts_time:2874.61
lavfi.scene_score=0.267646
frame:267  pts:86249163 pts_time:2874.97
lavfi.scene_score=0.266938
frame:268  pts:86252166 pts_time:2875.07
lavfi.scene_score=0.276222
frame:269  pts:86254168 pts_time:2875.14
lavfi.scene_score=0.268180
frame:270  pts:86257171 pts_time:2875.24
lavfi.scene_score=0.262300
frame:271  pts:86273187 pts_time:2875.77
lavfi.scene_score=0.266378
frame:272  pts:86390304 pts_time:2879.68
lavfi.scene_score=0.337705
frame:273  pts:86472386 pts_time:2882.41
lavfi.scene_score=0.272639
frame:274  pts:86533447 pts_time:2884.45
lavfi.scene_score=0.423548
frame:275  pts:86911825 pts_time:2897.06
lavfi.scene_score=0.473095
frame:276  pts:86979893 pts_time:2899.33
lavfi.scene_score=0.437459
frame:277  pts:87107020 pts_time:2903.57
lavfi.scene_score=0.432851
frame:278  pts:87211124 pts_time:2907.04
lavfi.scene_score=0.505777
frame:279  pts:87280193 pts_time:2909.34
lavfi.scene_score=0.407364
frame:280  pts:87496409 pts_time:2916.55
lavfi.scene_score=0.275986
frame:281  pts:87551464 pts_time:2918.38
lavfi.scene_score=0.436304
frame:282  pts:87718631 pts_time:2923.95
lavfi.scene_score=0.387568
frame:283  pts:88232144 pts_time:2941.07
lavfi.scene_score=0.465147
frame:284  pts:88412324 pts_time:2947.08
lavfi.scene_score=0.428693
frame:285  pts:88462374 pts_time:2948.75
lavfi.scene_score=0.434046
frame:286  pts:88588500 pts_time:2952.95
lavfi.scene_score=0.441545
frame:287  pts:88662574 pts_time:2955.42
lavfi.scene_score=0.485773
frame:288  pts:88807719 pts_time:2960.26
lavfi.scene_score=0.480282
frame:289  pts:88893805 pts_time:2963.13
lavfi.scene_score=0.474403
frame:290  pts:89022934 pts_time:2967.43
lavfi.scene_score=0.507736
frame:291  pts:89319230 pts_time:2977.31
lavfi.scene_score=0.492979
frame:292  pts:89841752 pts_time:2994.73
lavfi.scene_score=0.476132
frame:293  pts:90628538 pts_time:3020.95
lavfi.scene_score=0.292884
frame:294  pts:90688598 pts_time:3022.95
lavfi.scene_score=0.394050
frame:295  pts:90750660 pts_time:3025.02
lavfi.scene_score=0.402521
frame:296  pts:90849759 pts_time:3028.33
lavfi.scene_score=0.363035
frame:297  pts:93197104 pts_time:3106.57
lavfi.scene_score=0.403126
frame:298  pts:93362269 pts_time:3112.08
lavfi.scene_score=0.413988
frame:299  pts:93659566 pts_time:3121.99
lavfi.scene_score=0.376056
frame:300  pts:93939846 pts_time:3131.33
lavfi.scene_score=0.387314
frame:301  pts:94078985 pts_time:3135.97
lavfi.scene_score=0.378283
frame:302  pts:94286192 pts_time:3142.87
lavfi.scene_score=0.290759
frame:303  pts:94535441 pts_time:3151.18
lavfi.scene_score=0.301552
frame:304  pts:94814720 pts_time:3160.49
lavfi.scene_score=0.462366
frame:305  pts:96610514 pts_time:3220.35
lavfi.scene_score=0.313680
frame:306  pts:97067971 pts_time:3235.6
lavfi.scene_score=0.256444
frame:307  pts:97199102 pts_time:3239.97
lavfi.scene_score=0.252637
frame:308  pts:97423326 pts_time:3247.44
lavfi.scene_score=0.253361
frame:309  pts:97697600 pts_time:3256.59
lavfi.scene_score=0.262564
frame:310  pts:98826728 pts_time:3294.22
lavfi.scene_score=0.363255
frame:311  pts:99136037 pts_time:3304.53
lavfi.scene_score=0.437048
frame:312  pts:99212113 pts_time:3307.07
lavfi.scene_score=0.404664
frame:313  pts:99498399 pts_time:3316.61
lavfi.scene_score=0.382438
frame:314  pts:99624525 pts_time:3320.82
lavfi.scene_score=0.381070
frame:315  pts:99892793 pts_time:3329.76
lavfi.scene_score=0.428321
frame:316  pts:100324224 pts_time:3344.14
lavfi.scene_score=0.495667
frame:317  pts:101525424 pts_time:3384.18
lavfi.scene_score=0.469627
frame:318  pts:101879778 pts_time:3395.99
lavfi.scene_score=0.513788
frame:319  pts:102133031 pts_time:3404.43
lavfi.scene_score=0.516171
frame:320  pts:102255153 pts_time:3408.51
lavfi.scene_score=0.514181
frame:321  pts:102433331 pts_time:3414.44
lavfi.scene_score=0.410412
frame:322  pts:104197093 pts_time:3473.24
lavfi.scene_score=0.293440
frame:323  pts:104849745 pts_time:3494.99
lavfi.scene_score=0.402120
frame:324  pts:105656551 pts_time:3521.89
lavfi.scene_score=0.410169
frame:325  pts:106239133 pts_time:3541.3
lavfi.scene_score=0.257206
frame:326  pts:107098992 pts_time:3569.97
lavfi.scene_score=0.281149
frame:327  pts:107957850 pts_time:3598.6
lavfi.scene_score=0.695485
frame:328  pts:109735626 pts_time:3657.85
lavfi.scene_score=0.347535
frame:329  pts:110257147 pts_time:3675.24
lavfi.scene_score=0.254442
frame:330  pts:110487377 pts_time:3682.91
lavfi.scene_score=0.519113
frame:331  pts:110823713 pts_time:3694.12
lavfi.scene_score=0.525274
frame:332  pts:110887777 pts_time:3696.26
lavfi.scene_score=0.520993
frame:333  pts:110979869 pts_time:3699.33
lavfi.scene_score=0.504901
frame:334  pts:111052942 pts_time:3701.76
lavfi.scene_score=0.585510
frame:335  pts:111475364 pts_time:3715.85
lavfi.scene_score=0.479416
frame:336  pts:111711600 pts_time:3723.72
lavfi.scene_score=0.459401
frame:337  pts:112064953 pts_time:3735.5
lavfi.scene_score=0.540861
frame:338  pts:112360248 pts_time:3745.34
lavfi.scene_score=0.619283
frame:339  pts:112594482 pts_time:3753.15
lavfi.scene_score=0.579194
frame:340  pts:112708596 pts_time:3756.95
lavfi.scene_score=0.580352
frame:341  pts:114662548 pts_time:3822.08
lavfi.scene_score=0.287183
frame:342  pts:114762648 pts_time:3825.42
lavfi.scene_score=0.437971
frame:343  pts:114997883 pts_time:3833.26
lavfi.scene_score=0.437192
frame:344  pts:116414298 pts_time:3880.48
lavfi.scene_score=0.349312
frame:345  pts:116542426 pts_time:3884.75
lavfi.scene_score=0.338805
frame:346  pts:116805689 pts_time:3893.52
lavfi.scene_score=0.275327
frame:347  pts:117597480 pts_time:3919.92
lavfi.scene_score=0.257505
frame:348  pts:118299181 pts_time:3943.31
lavfi.scene_score=0.549426
frame:349  pts:121774653 pts_time:4059.16
lavfi.scene_score=0.255167
frame:350  pts:122304182 pts_time:4076.81
lavfi.scene_score=0.252444
frame:351  pts:124801677 pts_time:4160.06
lavfi.scene_score=0.391791
frame:352  pts:126183057 pts_time:4206.1
lavfi.scene_score=0.275330
frame:353  pts:126725599 pts_time:4224.19
lavfi.scene_score=0.297338
frame:354  pts:127040914 pts_time:4234.7
lavfi.scene_score=0.410094
frame:355  pts:127227100 pts_time:4240.9
lavfi.scene_score=0.405562
frame:356  pts:127743616 pts_time:4258.12
lavfi.scene_score=0.274380
frame:357  pts:128269141 pts_time:4275.64
lavfi.scene_score=0.256029
frame:358  pts:131245114 pts_time:4374.84
lavfi.scene_score=0.293140
frame:359  pts:131424293 pts_time:4380.81
lavfi.scene_score=0.341857
frame:360  pts:131919788 pts_time:4397.33
lavfi.scene_score=0.350968
frame:361  pts:132087956 pts_time:4402.93
lavfi.scene_score=0.410756
frame:362  pts:132448316 pts_time:4414.94
lavfi.scene_score=0.346351
frame:363  pts:132501369 pts_time:4416.71
lavfi.scene_score=0.451223
frame:364  pts:132653521 pts_time:4421.78
lavfi.scene_score=0.418213
frame:365  pts:132726594 pts_time:4424.22
lavfi.scene_score=0.451340
frame:366  pts:132999867 pts_time:4433.33
lavfi.scene_score=0.443610
frame:367  pts:133096964 pts_time:4436.57
lavfi.scene_score=0.414130
frame:368  pts:133733600 pts_time:4457.79
lavfi.scene_score=0.350138
frame:369  pts:133934801 pts_time:4464.49
lavfi.scene_score=0.510736
frame:370  pts:134255121 pts_time:4475.17
lavfi.scene_score=0.534470
frame:371  pts:134465331 pts_time:4482.18
lavfi.scene_score=0.474938
frame:372  pts:136733597 pts_time:4557.79
lavfi.scene_score=0.331420
frame:373  pts:136863727 pts_time:4562.12
lavfi.scene_score=0.477122
frame:374  pts:136992856 pts_time:4566.43
lavfi.scene_score=0.479602
frame:375  pts:137122986 pts_time:4570.77
lavfi.scene_score=0.541966
frame:376  pts:137224087 pts_time:4574.14
lavfi.scene_score=0.406632
frame:377  pts:137299162 pts_time:4576.64
lavfi.scene_score=0.447870
frame:378  pts:137361224 pts_time:4578.71
lavfi.scene_score=0.521682
frame:379  pts:137487350 pts_time:4582.91
lavfi.scene_score=0.486352
frame:380  pts:137732595 pts_time:4591.09
lavfi.scene_score=0.479132
frame:381  pts:138002865 pts_time:4600.1
lavfi.scene_score=0.528256
frame:382  pts:138559421 pts_time:4618.65
lavfi.scene_score=0.419386
frame:383  pts:138667529 pts_time:4622.25
lavfi.scene_score=0.501514
frame:384  pts:138735597 pts_time:4624.52
lavfi.scene_score=0.518798
frame:385  pts:138792654 pts_time:4626.42
lavfi.scene_score=0.396955
frame:386  pts:138808670 pts_time:4626.96
lavfi.scene_score=0.479035
frame:387  pts:138840702 pts_time:4628.02
lavfi.scene_score=0.511536
frame:388  pts:139088950 pts_time:4636.3
lavfi.scene_score=0.528894
frame:389  pts:139152013 pts_time:4638.4
lavfi.scene_score=0.484859
frame:390  pts:139198059 pts_time:4639.94
lavfi.scene_score=0.303038
frame:391  pts:139306167 pts_time:4643.54
lavfi.scene_score=0.516155
frame:392  pts:139427288 pts_time:4647.58
lavfi.scene_score=0.434224
frame:393  pts:139549410 pts_time:4651.65
lavfi.scene_score=0.538613
frame:394  pts:139907768 pts_time:4663.59
lavfi.scene_score=0.568986
frame:395  pts:140338198 pts_time:4677.94
lavfi.scene_score=0.325698
frame:396  pts:140680540 pts_time:4689.35
lavfi.scene_score=0.468513
frame:397  pts:140939799 pts_time:4697.99
lavfi.scene_score=0.563726
frame:398  pts:141156015 pts_time:4705.2
lavfi.scene_score=0.583208
frame:399  pts:141381240 pts_time:4712.71
lavfi.scene_score=0.555999
frame:400  pts:141450309 pts_time:4715.01
lavfi.scene_score=0.522480
frame:401  pts:141522381 pts_time:4717.41
lavfi.scene_score=0.417334
frame:402  pts:141876735 pts_time:4729.22
lavfi.scene_score=0.458741
frame:403  pts:141976835 pts_time:4732.56
lavfi.scene_score=0.497862
frame:404  pts:142061920 pts_time:4735.4
lavfi.scene_score=0.505673
frame:405  pts:142295153 pts_time:4743.17
lavfi.scene_score=0.421798
frame:406  pts:142640498 pts_time:4754.68
lavfi.scene_score=0.336279
frame:407  pts:142732590 pts_time:4757.75
lavfi.scene_score=0.611596
frame:408  pts:142804662 pts_time:4760.16
lavfi.scene_score=0.413913
frame:409  pts:143004862 pts_time:4766.83
lavfi.scene_score=0.433749
frame:410  pts:143162019 pts_time:4772.07
lavfi.scene_score=0.490112
frame:411  pts:143502359 pts_time:4783.41
lavfi.scene_score=0.310542
frame:412  pts:143786643 pts_time:4792.89
lavfi.scene_score=0.360536
frame:413  pts:143964821 pts_time:4798.83
lavfi.scene_score=0.439767
frame:414  pts:144049906 pts_time:4801.66
lavfi.scene_score=0.288134
frame:415  pts:144185041 pts_time:4806.17
lavfi.scene_score=0.425626
frame:416  pts:144287143 pts_time:4809.57
lavfi.scene_score=0.499421
frame:417  pts:144378234 pts_time:4812.61
lavfi.scene_score=0.457352
frame:418  pts:144574430 pts_time:4819.15
lavfi.scene_score=0.459387
frame:419  pts:144830686 pts_time:4827.69
lavfi.scene_score=0.492674
frame:420  pts:145055911 pts_time:4835.2
lavfi.scene_score=0.554963
frame:421  pts:145139995 pts_time:4838
lavfi.scene_score=0.512650
frame:422  pts:145389244 pts_time:4846.31
lavfi.scene_score=0.565418
frame:423  pts:146414268 pts_time:4880.48
lavfi.scene_score=0.444574
frame:424  pts:146518372 pts_time:4883.95
lavfi.scene_score=0.429541
frame:425  pts:146753607 pts_time:4891.79
lavfi.scene_score=0.258007
